<svg width="14" height="14" viewBox="0 0 14 14" fill="none" xmlns="http://www.w3.org/2000/svg">
<path d="M5.65601 6.20534C5.69451 5.97784 5.76451 5.77484 5.86601 5.59634C5.96751 5.41784 6.10751 5.27434 6.27901 5.16584C6.44351 5.06434 6.65001 5.00834 6.90551 5.00484C7.07351 5.00834 7.22751 5.03634 7.36051 5.09584C7.50401 5.15884 7.62301 5.24284 7.72451 5.34784C7.82601 5.45284 7.90301 5.57884 7.95901 5.71884C8.01501 5.85884 8.04651 6.00934 8.05351 6.16684H9.30651C9.29601 5.83784 9.22951 5.53684 9.11401 5.26384C8.99851 4.99084 8.83051 4.75634 8.62051 4.55684C8.41051 4.35734 8.15851 4.20684 7.86451 4.09834C7.57051 3.98984 7.24501 3.93384 6.88801 3.93384C6.43301 3.93384 6.03751 4.01084 5.70151 4.16834C5.36551 4.32584 5.08551 4.53934 4.86151 4.81234C4.63751 5.08534 4.46951 5.40034 4.36101 5.76084C4.25251 6.12134 4.20001 6.50284 4.20001 6.90534V7.09785C4.20001 7.50385 4.25601 7.88535 4.36451 8.24585C4.47301 8.60635 4.64101 8.92135 4.86501 9.19085C5.08901 9.46035 5.36901 9.67385 5.70851 9.83135C6.04801 9.98885 6.44351 10.0659 6.89851 10.0659C7.22751 10.0659 7.53551 10.0134 7.82251 9.90485C8.10951 9.79635 8.36151 9.64935 8.57851 9.46035C8.79551 9.27135 8.97051 9.05435 9.09651 8.80235C9.22251 8.55035 9.29601 8.28435 9.30651 7.99735H8.05351C8.04651 8.14435 8.01151 8.27735 7.94851 8.40335C7.88551 8.52935 7.80151 8.63435 7.69651 8.72185C7.59151 8.80935 7.46901 8.87935 7.32901 8.92835C7.19601 8.97385 7.05601 8.99835 6.90551 8.99835C6.65351 8.99135 6.44701 8.93885 6.27901 8.83385C6.10401 8.72185 5.96401 8.57835 5.86251 8.39985C5.76101 8.22135 5.69101 8.01835 5.65251 7.78735C5.61401 7.55635 5.60001 7.33235 5.60001 7.09785V6.90534C5.60001 6.66734 5.61751 6.43284 5.65601 6.20534Z" fill="white"/>
<path d="M7 0C3.1325 0 0 3.1325 0 7C0 10.8675 3.1325 14 7 14C10.8675 14 14 10.8675 14 7C14 3.1325 10.8675 0 7 0ZM7 12.6C3.913 12.6 1.4 10.087 1.4 7C1.4 3.913 3.913 1.4 7 1.4C10.087 1.4 12.6 3.913 12.6 7C12.6 10.087 10.087 12.6 7 12.6Z" fill="white"/>
</svg>
