<svg width="26" height="26" viewBox="0 0 26 26" fill="none" xmlns="http://www.w3.org/2000/svg">
<path d="M26 13C26 5.8214 20.1786 0 13 0C5.8214 0 0 5.8214 0 13C0 20.1786 5.8214 26 13 26C13.0764 26 13.1523 25.9984 13.2285 25.997V15.8771H10.4355V12.6221H13.2285V10.2269C13.2285 7.44897 14.9243 5.93704 17.4023 5.93704C18.5889 5.93704 19.6089 6.02551 19.9062 6.06499V8.96825H18.1975C16.8495 8.96825 16.5884 9.60896 16.5884 10.549V12.6221H19.8118L19.3917 15.8771H16.5884V25.4977C22.0222 23.94 26 18.9339 26 13Z" fill="white"/>
</svg>
