<svg width="20" height="10" viewBox="0 0 20 10" fill="none" xmlns="http://www.w3.org/2000/svg">
<path d="M14.7916 0.265968C14.6353 0.422069 14.6352 0.675368 14.7913 0.831669C14.7914 0.831769 14.7915 0.831869 14.7916 0.831969L18.6344 4.67437L0.4 4.67437C0.1791 4.67437 0 4.85347 0 5.07437C0 5.29527 0.1791 5.47437 0.4 5.47437L18.6344 5.47437L14.7916 9.31677C14.6353 9.47308 14.6353 9.72647 14.7916 9.88277C14.9479 10.0391 15.2013 10.0391 15.3576 9.88277L19.8828 5.35717C19.9199 5.31992 19.9492 5.27577 19.9692 5.22717C20.0103 5.12942 20.0103 5.01932 19.9692 4.92157C19.9492 4.87297 19.9199 4.82882 19.8828 4.79157L15.3576 0.265968C15.2015 0.109669 14.9482 0.109518 14.7919 0.265668C14.7918 0.265768 14.7917 0.265868 14.7916 0.265968Z" fill="#07003B"/>
</svg>
